HIERARCHY
ROOT Hips
{
	OFFSET 15.585500 22.159004 44.358299
	CHANNELS 6 Xposition Yposition Zposition Zrotation Xrotation Yrotation
	JOINT Chest
	{
		OFFSET -0.128500 0.160400 6.566002
		CHANNELS 6 Xposition Yposition Zposition Zrotation Xrotation Yrotation
		JOINT Chest2
		{
			OFFSET 0.000000 0.000000 3.554802
			CHANNELS 6 Xposition Yposition Zposition Zrotation Xrotation Yrotation
			JOINT Neck
			{
				OFFSET 0.000000 0.000000 8.267998
				CHANNELS 6 Xposition Yposition Zposition Zrotation Xrotation Yrotation
				JOINT Head
				{
					OFFSET 0.000000 0.000002 2.173897
					CHANNELS 6 Xposition Yposition Zposition Zrotation Xrotation Yrotation
					End Site
					{
						OFFSET 0.000000 0.000000 7.718697
					}
				}
			}
			JOINT LeftCollar
			{
				OFFSET 2.057500 0.117599 5.946301
				CHANNELS 6 Xposition Yposition Zposition Zrotation Xrotation Yrotation
				JOINT LeftShoulder
				{
					OFFSET 4.957699 0.000000 0.000000
					CHANNELS 6 Xposition Yposition Zposition Zrotation Xrotation Yrotation
					JOINT LeftElbow
					{
						OFFSET 0.000000 0.000000 -8.465500
						CHANNELS 6 Xposition Yposition Zposition Zrotation Xrotation Yrotation
						JOINT LeftWrist
						{
							OFFSET 0.000000 -0.000002 -14.594898
							CHANNELS 6 Xposition Yposition Zposition Zrotation Xrotation Yrotation
							End Site
							{
								OFFSET 0.000000 0.000000 -2.173901
							}
						}
					}
				}
			}
			JOINT RightCollar
			{
				OFFSET -3.048500 -0.728800 6.604099
				CHANNELS 6 Xposition Yposition Zposition Zrotation Xrotation Yrotation
				JOINT RightShoulder
				{
					OFFSET -3.710299 0.000000 0.000000
					CHANNELS 6 Xposition Yposition Zposition Zrotation Xrotation Yrotation
					JOINT RightElbow
					{
						OFFSET 0.000000 0.000000 -10.450901
						CHANNELS 6 Xposition Yposition Zposition Zrotation Xrotation Yrotation
						JOINT RightWrist
						{
							OFFSET 0.000000 0.000000 -12.539200
							CHANNELS 6 Xposition Yposition Zposition Zrotation Xrotation Yrotation
							End Site
							{
								OFFSET 0.000000 -0.000002 -2.173901
							}
						}
					}
				}
			}
		}
	}
	JOINT LeftHip
	{
		OFFSET 2.442599 -0.601400 -2.767502
		CHANNELS 6 Xposition Yposition Zposition Zrotation Xrotation Yrotation
		JOINT LeftKnee
		{
			OFFSET 0.000000 -0.000002 -17.033703
			CHANNELS 6 Xposition Yposition Zposition Zrotation Xrotation Yrotation
			JOINT LeftAnkle
			{
				OFFSET 0.000000 -0.000002 -19.318800
				CHANNELS 6 Xposition Yposition Zposition Zrotation Xrotation Yrotation
				End Site
				{
					OFFSET 0.000000 -8.281900 0.000000
				}
			}
		}
	}
	JOINT RightHip
	{
		OFFSET -3.126200 -0.601400 -2.283501
		CHANNELS 6 Xposition Yposition Zposition Zrotation Xrotation Yrotation
		JOINT RightKnee
		{
			OFFSET 0.000000 -0.000002 -16.919401
			CHANNELS 6 Xposition Yposition Zposition Zrotation Xrotation Yrotation
			JOINT RightAnkle
			{
				OFFSET 0.000000 -0.000002 -18.035900
				CHANNELS 6 Xposition Yposition Zposition Zrotation Xrotation Yrotation
				End Site
				{
					OFFSET 0.000000 -9.230099 0.000000
				}
			}
		}
	}
}
MOTION
Frames: 8
Frame Time: 0.041667
23.713497 23.979303 42.400600 -4.457263 0.405222 -0.839632 -0.128508 0.160395 6.566009 4.840924 7.289481 -1.553329 -0.000004 0.000001 3.554809 -3.076567 -5.143314 -1.182427 -0.000002 0.000004 8.268003 2.844898 -3.585930 2.952126 -0.000001 -0.000004 2.173901 0.521835 -0.639888 0.913507 2.057504 0.117603 5.946308 -20.075376 -2.507599 4.371450 4.957702 0.000005 0.000004 -27.552939 -7.626773 -57.577135 0.000002 0.000003 -8.465505 -150.485159 -125.988549 -123.444290 0.000002 -0.000002 -14.594894 42.532490 -16.668756 -4.097404 -3.048504 -0.728799 6.604105 29.789108 -1.243117 -4.791093 -3.710305 0.000003 -0.000003 27.367653 -11.727657 51.433152 -0.000003 0.000006 -10.450906 -29.724703 -83.216621 -52.585657 -0.000000 0.000012 -12.539197 -121.348570 8.900267 -103.148308 2.442591 -0.601401 -2.767498 6.423092 -12.761295 4.109446 -0.000002 -0.000006 -17.033707 -33.120246 27.135858 24.040669 0.000000 0.000000 -19.318798 34.964005 10.942594 14.455863 -3.126206 -0.601402 -2.283504 -88.683572 -50.805720 -50.714851 -0.000002 0.000008 -16.919399 136.120670 30.572487 -94.047743 0.000000 -0.000007 -18.035896 -15.761788 49.988614 -109.487768
23.729996 23.959204 42.372402 -4.462436 0.453601 -0.883868 -0.128496 0.160391 6.565998 4.842320 7.281804 -1.515666 0.000001 0.000001 3.554800 -3.055188 -5.130509 -1.175138 0.000002 0.000004 8.268000 2.820240 -3.655434 2.946828 0.000001 0.000001 2.173897 0.508979 -0.678401 0.924697 2.057502 0.117604 5.946301 -20.097241 -2.555736 4.350755 4.957703 0.000004 -0.000001 -27.496497 -7.622501 -57.532528 0.000002 0.000004 -8.465500 -150.365317 -125.992770 -123.397353 0.000002 -0.000002 -14.594891 42.499896 -16.676863 -4.066780 -3.048501 -0.728799 6.604101 29.771234 -1.285429 -4.756833 -3.710297 0.000007 0.000004 27.355734 -11.747480 51.403468 -0.000005 0.000007 -10.450910 -29.520870 -83.224885 -52.383528 0.000010 0.000006 -12.539200 -121.357503 8.905786 -103.153137 2.442601 -0.601401 -2.767504 6.715795 -12.912929 4.233872 -0.000004 -0.000001 -17.033705 -33.595665 27.315439 24.281480 0.000002 -0.000000 -19.318802 35.025159 10.768208 14.692808 -3.126196 -0.601405 -2.283509 -87.895478 -50.935306 -49.712876 -0.000002 -0.000000 -16.919399 136.543090 30.662218 -93.928174 -0.000003 -0.000006 -18.035894 -15.305728 50.184450 -109.309671
23.745998 23.938807 42.344002 -4.481108 0.510390 -0.926228 -0.128500 0.160395 6.566008 4.857724 7.264425 -1.480002 -0.000002 -0.000001 3.554802 -3.041460 -5.117131 -1.168820 -0.000000 0.000004 8.267995 2.804990 -3.724092 2.945559 0.000001 0.000000 2.173889 0.494976 -0.715159 0.933339 2.057504 0.117602 5.946302 -20.117861 -2.602315 4.341478 4.957702 0.000005 0.000005 -27.443955 -7.608720 -57.503417 -0.000003 0.000004 -8.465502 -150.247209 -125.995899 -123.346987 0.000001 -0.000001 -14.594891 42.472698 -16.698930 -4.039753 -3.048499 -0.728798 6.604099 29.764325 -1.325267 -4.723473 -3.710296 0.000003 0.000000 27.348062 -11.754984 51.376236 -0.000006 0.000011 -10.450911 -29.378939 -83.224735 -52.231150 0.000010 0.000009 -12.539200 -121.353624 8.912892 -103.152549 2.442598 -0.601398 -2.767496 7.456606 -13.157673 4.453986 -0.000003 -0.000001 -17.033707 -34.215426 27.735448 24.507414 0.000000 -0.000002 -19.318798 34.869888 10.609123 14.694131 -3.126196 -0.601404 -2.283501 -86.563482 -51.248122 -48.270743 -0.000005 -0.000002 -16.919397 136.509868 30.902474 -93.743083 0.000001 -0.000001 -18.035896 -14.744261 50.370982 -109.152638
23.761297 23.918407 42.315601 -4.513573 0.575476 -0.965870 -0.128500 0.160403 6.566002 4.887262 7.237758 -1.446361 0.000003 0.000002 3.554802 -3.035290 -5.102773 -1.163636 0.000005 0.000006 8.268001 2.798994 -3.791237 2.947810 -0.000002 0.000005 2.173887 0.480702 -0.749047 0.939236 2.057504 0.117606 5.946312 -20.137496 -2.647806 4.343346 4.957700 0.000007 0.000000 -27.395791 -7.586803 -57.490529 0.000004 0.000006 -8.465503 -150.132202 -125.998795 -123.293521 0.000000 0.000002 -14.594894 42.449510 -16.732253 -4.016792 -3.048501 -0.728799 6.604108 29.769571 -1.362996 -4.692062 -3.710296 -0.000002 0.000011 27.343315 -11.749151 51.353307 -0.000002 0.000006 -10.450908 -29.301556 -83.217488 -52.130111 0.000009 0.000004 -12.539206 -121.339335 8.920660 -103.147283 2.442599 -0.601395 -2.767500 7.746930 -13.323163 4.579777 -0.000004 0.000000 -17.033710 -34.670693 27.918736 24.742480 -0.000002 0.000000 -19.318798 34.929113 10.421164 15.014016 -3.126197 -0.601398 -2.283502 -85.547908 -51.371441 -47.062380 -0.000003 0.000000 -16.919397 136.695567 31.046639 -93.622653 0.000002 -0.000005 -18.035898 -14.251360 50.531061 -109.052289
23.775797 23.898012 42.287201 -4.559135 0.648422 -1.002278 -0.128497 0.160399 6.566003 4.930383 7.203032 -1.414832 -0.000002 0.000002 3.554800 -3.035973 -5.087656 -1.159429 -0.000001 0.000003 8.268000 2.801074 -3.856266 2.952707 -0.000000 -0.000001 2.173889 0.466244 -0.779662 0.942487 2.057502 0.117602 5.946303 -20.156424 -2.692393 4.355020 4.957705 0.000004 0.000004 -27.352548 -7.558884 -57.493493 0.000002 -0.000003 -8.465498 -150.020802 -126.002456 -123.236762 -0.000002 -0.000004 -14.594894 42.428602 -16.773240 -3.998451 -3.048503 -0.728800 6.604095 29.786721 -1.399435 -4.663482 -3.710304 0.000003 -0.000004 27.340008 -11.730075 51.335371 0.000003 0.000008 -10.450899 -29.284200 -83.204961 -52.076354 0.000003 0.000006 -12.539200 -121.317287 8.928475 -103.138486 2.442603 -0.601398 -2.767493 8.043359 -13.496201 4.704749 0.000001 -0.000000 -17.033709 -35.110256 28.107127 24.972864 -0.000001 -0.000003 -19.318800 34.979912 10.231175 15.353370 -3.126193 -0.601404 -2.283497 -84.409247 -51.491249 -45.746527 0.000000 0.000001 -16.919395 136.753187 31.219610 -93.497906 -0.000001 -0.000001 -18.035892 -13.755543 50.670581 -108.993502
23.789597 23.877806 42.258900 -4.606079 0.718820 -1.035754 -0.128498 0.160397 6.566002 4.975112 7.170584 -1.385239 0.000001 0.000001 3.554805 -3.042498 -5.071600 -1.156096 0.000002 0.000000 8.267999 2.810234 -3.918782 2.959089 0.000002 0.000000 2.173896 0.451400 -0.807306 0.942794 2.057508 0.117601 5.946306 -20.174325 -2.736621 4.374278 4.957703 0.000002 -0.000004 -27.314640 -7.527881 -57.510077 0.000002 0.000001 -8.465500 -149.914688 -126.007701 -123.177421 0.000000 -0.000001 -14.594892 42.408020 -16.817524 -3.985526 -3.048500 -0.728799 6.604103 29.814616 -1.435386 -4.637908 -3.710296 0.000004 0.000005 27.336575 -11.698926 51.322468 0.000000 0.000008 -10.450905 -29.319745 -83.189518 -52.064404 0.000009 0.000009 -12.539204 -121.291196 8.935929 -103.127332 2.442600 -0.601401 -2.767503 7.849698 -13.587761 4.676678 -0.000004 -0.000002 -17.033699 -35.368909 28.031317 25.252890 0.000001 -0.000000 -19.318802 35.243899 10.017803 15.986384 -3.126195 -0.601406 -2.283500 -83.084525 -51.610484 -44.216459 0.000000 0.000006 -16.919399 136.622047 31.407997 -93.313232 -0.000001 -0.000006 -18.035894 -13.260203 50.790062 -108.971119
23.802296 23.857904 42.230698 -4.672990 0.804211 -1.065338 -0.128502 0.160393 6.566006 5.039909 7.123918 -1.356196 -0.000002 -0.000000 3.554809 -3.053655 -5.054741 -1.153429 0.000002 0.000000 8.268003 2.824814 -3.979010 2.965872 0.000003 0.000000 2.173888 0.435875 -0.832482 0.940360 2.057508 0.117602 5.946311 -20.190695 -2.780977 4.397656 4.957702 0.000005 0.000004 -27.282917 -7.496637 -57.536701 0.000003 0.000004 -8.465500 -149.814285 -126.015091 -123.115744 0.000000 0.000003 -14.594887 42.385832 -16.860588 -3.979265 -3.048498 -0.728801 6.604103 29.850519 -1.472272 -4.614448 -3.710296 0.000005 0.000009 27.331545 -11.657796 51.312711 -0.000006 0.000010 -10.450897 -29.396526 -83.173529 -52.085380 0.000008 0.000006 -12.539200 -121.264176 8.942268 -103.115059 2.442596 -0.601405 -2.767500 8.218688 -13.777553 4.835295 -0.000000 -0.000001 -17.033703 -35.776439 28.268024 25.442263 -0.000000 0.000002 -19.318804 35.243537 9.838063 16.282812 -3.126200 -0.601403 -2.283501 -82.133947 -51.565179 -43.032476 -0.000003 0.000000 -16.919397 136.744321 31.523980 -93.240142 0.000001 -0.000005 -18.035900 -12.848797 50.884233 -108.997634
23.814098 23.838408 42.202599 -4.746953 0.894497 -1.091911 -0.128499 0.160401 6.566001 5.111745 7.073536 -1.327001 -0.000002 0.000003 3.554801 -3.067817 -5.037115 -1.151082 0.000001 0.000002 8.267999 2.842925 -4.037312 2.971553 -0.000002 0.000004 2.173895 0.419083 -0.855995 0.935380 2.057508 0.117601 5.946304 -20.204973 -2.825833 4.421403 4.957705 0.000000 -0.000002 -27.257735 -7.467860 -57.569055 0.000005 0.000004 -8.465499 -149.721517 -126.024217 -123.053248 -0.000004 0.000003 -14.594895 42.360703 -16.898457 -3.980810 -3.048503 -0.728801 6.604100 29.891210 -1.511417 -4.591916 -3.710291 -0.000000 0.000000 27.324576 -11.609045 51.304085 -0.000007 0.000005 -10.450902 -29.502654 -83.159227 -52.129981 0.000011 0.000004 -12.539202 -121.239205 8.947452 -103.102730 2.442600 -0.601396 -2.767499 8.544416 -13.969386 4.946960 -0.000005 -0.000002 -17.033709 -36.146707 28.474167 25.660746 0.000004 -0.000003 -19.318802 35.244408 9.664572 16.570575 -3.126196 -0.601398 -2.283494 -80.621675 -51.679718 -41.402971 -0.000003 0.000000 -16.919397 136.410694 31.781820 -93.110150 -0.000001 -0.000001 -18.035894 -12.358101 50.970591 -109.031887
